HIERARCHY
ROOT Hips
{
	OFFSET 0 0 0
	CHANNELS 6 Xposition Yposition Zposition Yrotation Xrotation Zrotation
	JOINT Spine
	{
		OFFSET -0 8.37147 -2.66841
		CHANNELS 3 Yrotation Xrotation Zrotation
		JOINT Spine1
		{
			OFFSET -0 8.81736 0
			CHANNELS 3 Yrotation Xrotation Zrotation
			JOINT Spine2
			{
				OFFSET -0 8.81736 0
				CHANNELS 3 Yrotation Xrotation Zrotation
				JOINT Spine3
				{
					OFFSET -0 8.81736 0
					CHANNELS 3 Yrotation Xrotation Zrotation
					JOINT Neck
					{
						OFFSET -0 20.2165 3.66841
						CHANNELS 3 Yrotation Xrotation Zrotation
						JOINT Head
						{
							OFFSET -0 10.4643 0
							CHANNELS 3 Yrotation Xrotation Zrotation
							End Site
							{
								OFFSET 0 15 0
							}
						}
					}
					JOINT LeftShoulder
					{
						OFFSET 1.74406 7.24 3.48811
						CHANNELS 3 Yrotation Xrotation Zrotation
						JOINT LeftArm
						{
							OFFSET 15.166 0 0
							CHANNELS 3 Yrotation Xrotation Zrotation
							JOINT LeftForeArm
							{
								OFFSET 25.1836 0 0
								CHANNELS 3 Yrotation Xrotation Zrotation
								JOINT LeftHand
								{
									OFFSET 23.8595 0 0
									CHANNELS 3 Yrotation Xrotation Zrotation
									End Site
									{
										OFFSET 15 0 0
									}
								}
							}
						}
					}
					JOINT RightShoulder
					{
						OFFSET -1.74406 7.24 3.48811
						CHANNELS 3 Yrotation Xrotation Zrotation
						JOINT RightArm
						{
							OFFSET -15.166 0 0
							CHANNELS 3 Yrotation Xrotation Zrotation
							JOINT RightForeArm
							{
								OFFSET -25.1836 0 0
								CHANNELS 3 Yrotation Xrotation Zrotation
								JOINT RightHand
								{
									OFFSET -23.8595 0 0
									CHANNELS 3 Yrotation Xrotation Zrotation
									End Site
									{
										OFFSET -15 0 0
									}
								}
							}
						}
					}
				}
			}
		}
	}
	JOINT LeftUpLeg
	{
		OFFSET 10.4643 -3.48811 2
		CHANNELS 3 Yrotation Xrotation Zrotation
		JOINT LeftLeg
		{
			OFFSET -0 -38.892 2.44168
			CHANNELS 3 Yrotation Xrotation Zrotation
			JOINT LeftFoot
			{
				OFFSET -0 -41.3956 -2.44168
				CHANNELS 3 Yrotation Xrotation Zrotation
				JOINT LeftToeBase
				{
					OFFSET -0 -6.7338 15.6965
					CHANNELS 3 Yrotation Xrotation Zrotation
					End Site
					{
						OFFSET 0 0 5
					}
				}
			}
		}
	}
	JOINT RightUpLeg
	{
		OFFSET -10.4643 -3.48811 2
		CHANNELS 3 Yrotation Xrotation Zrotation
		JOINT RightLeg
		{
			OFFSET -0 -38.892 2.44168
			CHANNELS 3 Yrotation Xrotation Zrotation
			JOINT RightFoot
			{
				OFFSET -0 -41.3956 -2.44168
				CHANNELS 3 Yrotation Xrotation Zrotation
				JOINT RightToeBase
				{
					OFFSET -0 -6.7338 15.6965
					CHANNELS 3 Yrotation Xrotation Zrotation
					End Site
					{
						OFFSET 0 0 5
					}
				}
			}
		}
	}
}
MOTION
Frames: 6
Frame Time: 0.00833333
0 93.707184 0 0 0 0 0 0 0 0 0 0 0 0 0 0 0 0 0 0 0 0 0 0 0 0 0 0 0 0 0 0 0 0 0 0 0 0 0 0 0 0 0 0 0 0 0 0 0 0 0 0 0 0 0 0 0 0 0 0 0 0 0 0 0 0 0 0 0 0 0 0
-82.476227 93.716821 8.229262 -1.526745 1.844290 0.465658 -0.519144 -0.080878 -0.482385 -0.389126 0.052225 -0.386747 0.080003 0.187206 -0.266454 0.212533 0.323912 -0.120520 3.562802 -5.461468 1.046180 1.254751 13.751572 -2.658744 13.952867 12.928393 2.642955 -52.554165 1.620075 -58.075918 -5.219936 -4.797064 0.636122 4.631234 -5.503902 -19.977383 -8.599363 3.092138 -2.898642 43.968059 15.263260 67.568828 17.959985 12.638769 -5.512727 -19.865095 -11.525536 22.299939 0.496014 1.413630 4.306544 0.000000 1.512855 0.000000 1.633042 -0.507180 -1.136937 0.000000 -3.201432 0.000000 -4.171204 2.576564 -2.873833 0.000000 0.773159 0.000000 -1.139898 -2.194754 1.332725 0.000000 -3.674427 0.000000
-82.472894 93.718713 8.233756 -1.515159 1.842492 0.464641 -0.515932 -0.067911 -0.471514 -0.384622 0.023266 -0.386752 0.074725 0.165368 -0.267592 0.206189 0.323853 -0.107847 3.552512 -5.442786 1.052188 1.247610 13.770005 -2.672088 13.939526 12.913200 2.633948 -52.534309 1.670525 -58.108696 -5.246317 -4.781104 0.593605 4.616007 -5.533346 -19.923559 -8.575698 3.098611 -2.893081 43.917266 15.273299 67.547363 17.951404 12.577470 -5.506558 -19.869123 -11.409234 22.298927 0.512101 1.410898 4.304007 0.000000 1.517942 0.000000 1.613111 -0.512288 -1.127546 0.000000 -3.211741 0.000000 -4.165001 2.578758 -2.874061 0.000000 0.779625 0.000000 -1.164876 -2.205732 1.343861 0.000000 -3.654732 0.000000
-82.465387 93.717297 8.237083 -1.521067 1.840978 0.468163 -0.509222 -0.087780 -0.467065 -0.377884 0.029611 -0.378183 0.080197 0.168595 -0.259363 0.212536 0.307186 -0.105158 3.545695 -5.432203 1.063083 1.242383 13.764473 -2.686089 13.949179 12.929867 2.631988 -52.575408 1.676838 -58.129882 -5.235176 -4.849143 0.615639 4.614163 -5.502518 -19.910947 -8.580991 3.100782 -2.899274 43.924050 15.301008 67.519954 17.971712 12.515479 -5.502818 -19.883300 -11.338520 22.272081 0.524478 1.408115 4.293063 0.000000 1.531590 0.000000 1.609649 -0.514516 -1.104544 0.000000 -3.239059 0.000000 -4.122361 2.584151 -2.881807 0.000000 0.779993 0.000000 -1.201188 -2.208625 1.335288 0.000000 -3.659036 0.000000
-82.466382 93.716595 8.238594 -1.498905 1.838249 0.466987 -0.508284 -0.092087 -0.461358 -0.376424 0.031311 -0.378088 0.068906 0.155603 -0.263375 0.202392 0.308738 -0.114668 3.539310 -5.449885 1.110217 1.235157 13.794807 -2.676469 13.977748 12.921306 2.664028 -52.528575 1.631910 -58.146632 -5.229537 -4.672680 0.610752 4.640882 -5.553261 -19.913327 -8.531639 3.094660 -2.871965 43.864155 15.312867 67.515980 17.961896 12.516292 -5.513604 -19.878803 -11.302628 22.233799 0.518200 1.407583 4.297685 0.000000 1.531841 0.000000 1.586450 -0.517952 -1.101398 0.000000 -3.231571 0.000000 -4.129136 2.585447 -2.878288 0.000000 0.788755 0.000000 -1.216103 -2.206694 1.335480 0.000000 -3.694070 0.000000
-82.465057 93.716498 8.241294 -1.488123 1.836809 0.466846 -0.503803 -0.091837 -0.451534 -0.371670 0.029636 -0.373049 0.059808 0.137652 -0.260612 0.193275 0.292486 -0.112624 3.550860 -5.461096 1.111387 1.238831 13.849543 -2.675268 13.982845 12.946179 2.651756 -52.478422 1.636273 -58.136003 -5.243087 -4.634449 0.589673 4.636476 -5.587095 -19.958107 -8.518589 3.104241 -2.883139 43.881762 15.335341 67.518751 17.980563 12.466255 -5.533204 -19.857659 -11.191979 22.167203 0.511101 1.406686 4.297163 0.000000 1.536553 0.000000 1.582384 -0.517298 -1.114159 0.000000 -3.240688 0.000000 -4.125008 2.588135 -2.879800 0.000000 0.797136 0.000000 -1.228275 -2.219428 1.344448 0.000000 -3.670392 0.000000
